<svg width="293" height="120" viewBox="0 0 998 273" fill="none" xmlns="http://www.w3.org/2000/svg">
<path d="M0 238.43C0 233.937 2.36481 231.809 6.85796 231.809H11.5876C19.155 231.809 24.3576 231.572 27.1953 230.863L61.7216 92.7643C58.8838 92.2914 54.6272 92.2914 48.7151 92.2914H43.9855C39.9653 92.2914 37.837 90.6361 37.837 87.3255C37.837 83.069 40.2018 80.9408 44.9314 80.9408H130.774C142.362 80.9408 151.585 82.1231 158.206 84.2514C173.341 89.2172 180.908 98.6761 180.908 112.864C180.908 121.614 177.834 129.89 171.449 137.694C165.064 145.734 156.314 151.409 145.2 154.956C142.598 155.902 138.342 157.084 132.666 158.503C143.544 159.449 152.294 162.523 158.679 167.962C165.3 173.401 168.611 180.731 168.611 189.954C168.611 201.777 163.409 213.128 152.767 224.005C142.362 234.883 127.936 241.031 109.727 242.686C106.89 242.923 102.869 243.159 97.4303 243.159H6.385C2.12833 243.159 0 241.504 0 238.43ZM56.519 231.572C58.4109 231.809 61.0122 231.809 64.7959 231.809H93.6466C103.815 231.809 111.856 229.444 118.004 224.951C123.916 220.695 128.409 214.783 131.72 207.216C134.794 199.885 136.45 192.318 136.45 184.988C136.45 179.785 135.74 175.765 134.085 172.455C132.43 169.144 130.301 167.016 127.463 165.834C124.626 164.651 122.261 163.705 120.605 163.469C118.95 163.232 116.822 162.996 114.22 162.996H73.7822L56.519 231.572ZM75.9105 154.247H107.126C115.166 154.247 122.024 152.591 127.936 149.517C133.848 146.207 138.342 142.187 141.179 137.221C144.017 132.491 146.145 127.762 147.328 123.269C148.747 119.012 149.456 114.992 149.456 111.445C149.456 98.6761 142.598 92.2914 129.119 92.2914H101.923C96.2479 92.2914 92.7007 92.2914 91.2818 92.5278L75.9105 154.247Z" fill="#009944"/>
<path d="M176.594 238.43C176.594 234.173 178.959 232.045 183.452 231.809H187.472C196.221 231.809 202.132 231.572 205.206 230.863L239.493 92.7643C233.345 92.2914 228.379 92.2914 225.069 92.2914H220.576C216.556 92.2914 214.428 90.6361 214.428 87.3255C214.428 83.069 216.793 80.9408 221.049 80.9408L225.305 81.1773C241.858 81.4137 252.026 81.6502 256.045 81.6502C262.903 81.6502 269.287 81.6502 275.199 81.4137C281.11 81.4137 285.603 81.4137 288.914 81.1773C292.224 80.9408 294.116 80.9408 294.825 80.9408C298.608 80.9408 300.5 82.5961 300.5 85.6702C300.5 90.1631 298.136 92.2914 293.17 92.2914H288.677C281.11 92.2914 275.672 92.7643 271.888 93.4737L237.601 231.336C243.986 231.572 248.715 231.809 252.026 231.809H256.518C260.775 231.809 262.903 233.464 262.903 236.538C262.903 237.248 262.903 237.957 262.666 238.666C262.43 239.376 261.957 240.322 260.775 241.504C259.829 242.686 258.174 243.159 256.282 243.159C255.809 243.159 253.681 243.159 250.607 242.923C247.296 242.686 242.804 242.686 237.365 242.686C231.69 242.45 225.542 242.45 219.157 242.45C211.827 242.45 205.206 242.45 199.768 242.686C194.565 242.686 190.546 242.686 187.708 242.923C185.107 243.159 183.688 243.159 182.979 243.159C178.723 243.159 176.594 241.504 176.594 238.43Z" fill="#009944"/>
<path d="M302.081 238.444C302.081 233.951 304.446 231.823 309.175 231.823H316.978C328.802 231.823 335.659 231.587 337.551 231.114C339.442 230.641 340.861 228.749 341.571 225.675C341.807 224.966 341.807 224.256 342.043 223.783L371.128 107.203C372.311 101.765 373.257 97.7446 374.202 95.1434C372.074 94.907 369.237 94.907 365.217 94.907H362.852C349.374 94.907 339.915 97.5081 334.004 102.474C328.092 107.44 322.417 118.081 316.505 134.397C315.796 136.999 314.85 138.654 313.904 139.6C312.722 140.309 311.067 140.782 308.466 140.782C304.446 140.782 302.318 139.363 302.318 136.289C302.318 135.343 307.52 119.5 318.161 88.7587C318.87 86.6305 319.816 85.2117 320.998 84.5023C321.944 83.7929 323.599 83.5564 325.728 83.5564H458.147C462.64 83.5564 464.768 85.4482 465.004 88.7587C465.004 89.9411 462.403 104.839 457.438 133.688C456.965 135.58 456.728 136.999 456.492 137.708C456.255 138.417 455.782 139.127 454.836 139.836C453.654 140.546 452.472 140.782 450.58 140.782C446.56 140.782 444.669 139.127 444.669 135.816C444.669 135.58 444.905 132.742 445.614 127.303C446.324 122.101 446.56 117.608 446.56 113.825C446.56 109.568 446.087 106.258 444.669 103.42C443.25 100.819 441.122 98.927 438.284 97.7446C435.446 96.3258 432.845 95.6164 430.244 95.3799C427.643 95.1434 424.333 94.907 420.076 94.907H417.948C412.746 94.907 408.963 95.1434 406.598 95.3799L372.784 231.114C372.784 231.114 379.405 231.35 392.41 231.823H400.213C404.706 231.823 407.071 233.478 407.071 236.789C407.071 241.045 404.706 243.174 400.213 243.174C399.504 243.174 397.139 243.174 393.356 242.937C389.573 242.701 384.37 242.701 377.749 242.701C371.128 242.464 363.798 242.464 355.995 242.464H343.699C340.152 242.464 335.659 242.464 329.984 242.701C324.309 242.701 319.107 242.701 314.614 242.937L308.229 243.174C304.209 243.174 302.081 241.518 302.081 238.444Z" fill="#009944"/>
<path d="M403.953 270.138C403.953 267.419 405.384 266.132 408.103 266.132H410.535C415.543 266.132 418.978 265.988 420.552 265.559L441.73 181.848C439.869 181.705 437.294 181.561 433.716 181.561H430.998C428.422 181.561 427.134 180.56 427.134 178.7C427.134 176.124 428.565 174.836 431.141 174.836C431.57 174.836 432.715 174.836 434.432 174.979C436.292 175.122 438.725 175.122 441.73 175.122C444.878 175.265 448.169 175.265 451.889 175.265C456.325 175.265 460.189 175.265 463.48 175.122C466.771 175.122 469.06 175.122 470.634 174.979C472.208 174.836 473.067 174.836 473.496 174.836C476.072 174.836 477.36 175.838 477.36 177.841C477.36 180.274 476.072 181.561 473.353 181.561H470.778C466.199 181.561 463.48 181.705 462.478 181.991C461.476 182.277 460.904 183.136 460.475 184.423L451.889 218.48H492.814L501.829 181.848C500.112 181.705 497.536 181.561 493.959 181.561H491.097C488.664 181.561 487.376 180.56 487.376 178.7C487.376 176.124 488.807 174.836 491.526 174.836C491.955 174.836 492.957 174.836 494.817 174.979C496.678 175.122 499.11 175.122 502.401 175.122C505.549 175.265 509.127 175.265 512.847 175.265C517.426 175.265 521.29 175.265 524.581 175.122C527.872 175.122 530.161 175.122 531.592 174.979C533.023 174.836 533.882 174.836 534.168 174.836C536.744 174.836 538.032 175.838 538.032 177.698C538.032 180.274 536.744 181.561 534.025 181.561H530.448C526.155 181.561 523.436 181.848 522.577 182.277C521.719 182.563 521.003 183.851 520.574 185.854C520.431 186.284 520.431 186.713 520.288 186.999L500.684 265.845C502.544 265.988 505.263 266.132 508.84 266.132H511.702C513.849 266.132 514.993 267.133 514.993 269.137C514.993 271.712 513.706 273 510.987 273H510.844C501.543 272.714 494.388 272.571 489.38 272.571C486.661 272.571 483.227 272.714 478.934 272.857C474.784 273 471.207 273 468.488 273C465.912 273 464.481 271.999 464.481 270.138C464.481 267.563 465.912 266.275 468.631 266.132H471.064C476.215 266.132 479.506 265.988 481.08 265.559L491.097 225.349H450.172L440.012 265.845C441.73 265.988 444.591 266.132 448.455 266.132H451.174C453.463 266.132 454.608 267.133 454.608 269.137C454.608 271.712 453.177 273 450.458 273H450.315C440.871 272.714 433.716 272.571 428.851 272.571C423.127 272.571 416.259 272.714 407.959 273C405.241 273 403.953 271.999 403.953 270.138Z" fill="#009944"/>
<path d="M532.258 225.417C532.258 222.698 533.689 221.411 536.408 221.411H539.27C543.848 221.411 547.139 221.267 548.713 220.838L569.318 138.271C566.743 137.985 564.167 137.842 561.591 137.842H558.73C556.154 137.842 554.866 136.84 554.866 134.837C554.866 132.261 556.297 130.974 559.016 130.974H633.851C636.426 130.974 637.857 131.975 637.857 134.122C637.857 134.122 636.856 143.137 634.852 161.167C634.709 162.741 634.28 163.886 633.851 164.601C633.278 165.317 632.134 165.603 630.56 165.603C627.984 165.603 626.696 164.458 626.696 162.169C626.696 161.596 626.839 160.308 627.126 158.305C627.269 156.159 627.412 154.441 627.412 152.867C627.412 146.714 625.838 142.707 622.547 140.704C619.256 138.701 613.818 137.842 605.949 137.842H595.932C592.785 137.842 590.495 137.842 589.064 137.985L580.05 174.332H584.915C590.924 174.332 595.074 173.187 597.363 171.041C598.651 169.753 599.653 168.179 600.368 166.461C601.084 164.601 601.513 163.17 601.799 162.025C602.085 160.881 602.658 159.879 603.373 158.877C604.088 158.019 605.233 157.589 606.664 157.589C609.24 157.589 610.671 158.591 610.671 160.738C610.671 161.167 610.241 162.884 609.526 165.889C607.666 173.187 605.662 181.057 603.516 189.643L602.514 193.936C602.371 194.222 602.228 194.651 602.085 195.367C601.799 195.939 601.656 196.369 601.513 196.512C601.227 196.655 600.941 196.941 600.654 197.227C600.368 197.513 599.939 197.657 599.51 197.8C599.08 197.8 598.508 197.8 597.936 197.8C595.36 197.8 594.072 196.941 594.072 195.081C594.072 194.508 594.358 193.364 594.788 191.503C595.217 189.643 595.36 188.069 595.36 186.924C595.36 184.349 594.502 182.774 592.641 182.059C590.781 181.487 587.92 181.2 583.913 181.2H578.333L568.316 221.267C569.604 221.411 571.321 221.411 573.754 221.411H583.055C593.214 221.411 600.797 219.98 605.806 216.975C607.952 215.687 609.812 214.256 611.529 212.539C613.103 210.965 614.82 208.675 616.394 205.956C617.968 203.237 618.97 201.091 619.685 199.66C620.4 198.229 621.545 195.653 623.119 192.076C623.692 190.788 624.264 189.929 624.836 189.5C625.409 189.214 626.41 188.928 627.841 188.928C630.274 188.928 631.418 189.786 631.418 191.646C631.418 192.076 626.839 203.237 617.539 225.131C616.966 226.419 616.394 227.278 615.822 227.707C615.249 228.136 614.248 228.279 612.817 228.279H536.408C533.689 228.279 532.258 227.278 532.258 225.417Z" fill="#009944"/>
<path d="M643.588 258.899C643.588 258.183 646.02 248.166 651.029 228.848C651.458 227.274 652.031 226.272 652.46 225.843C652.889 225.557 654.034 225.414 655.894 225.414C658.184 225.414 659.329 226.129 659.329 227.703C659.329 228.133 659.186 229.134 658.756 230.995C658.47 232.855 658.327 234.286 658.327 235.574C658.327 240.153 659.615 244.016 662.334 247.021C664.91 250.027 667.772 251.887 671.063 252.888C674.354 253.89 677.789 254.319 681.509 254.319C688.521 254.319 693.959 251.744 697.966 246.735C701.83 241.727 703.833 236.432 703.833 231.138C703.833 227.417 702.832 224.555 700.685 222.409C698.682 220.406 696.106 218.975 692.814 218.259C689.523 217.544 686.232 216.828 682.797 216.113C679.22 215.397 675.785 214.252 672.351 212.392C668.773 210.532 666.054 208.099 664.194 204.808C662.048 200.944 660.903 196.938 660.903 192.645C660.903 188.781 661.761 184.918 663.336 180.768C664.91 176.618 667.342 172.754 670.348 169.177C673.353 165.6 677.216 162.594 682.225 160.162C687.09 157.872 692.528 156.728 698.252 156.728C707.125 156.728 713.85 159.446 718.573 164.741C719.145 164.169 719.861 163.596 720.576 162.881C721.435 162.165 722.007 161.736 722.436 161.307C722.866 160.877 723.295 160.448 723.724 160.019C724.297 159.589 724.726 159.16 725.012 159.017L726.873 157.443C727.159 157.3 727.302 157.157 727.588 157.014C727.874 156.871 728.161 156.871 728.304 156.728C728.59 156.728 728.876 156.728 729.162 156.728C730.879 156.728 731.738 157.443 731.738 159.017C731.738 159.733 729.162 169.749 724.154 189.354C723.867 190.498 723.581 191.214 723.295 191.643C722.866 192.072 722.436 192.215 722.15 192.359C721.864 192.502 721.149 192.502 720.433 192.502H720.147C718.43 192.502 717.428 192.359 716.855 192.072C716.283 191.643 715.997 191.071 715.997 190.069C715.997 189.783 716.14 188.781 716.283 187.207C716.426 185.633 716.569 184.202 716.569 182.914C716.569 175.616 714.709 170.465 711.131 167.46C707.554 164.455 703.118 162.881 697.823 162.881C691.097 162.881 685.802 165.17 681.939 169.749C678.218 174.185 676.358 178.908 676.358 183.63C676.358 186.921 677.359 189.64 679.22 191.5C681.08 193.503 683.656 194.791 686.661 195.507C689.809 196.222 693.101 196.938 696.392 197.51C699.683 198.226 703.118 199.37 706.552 200.944C709.987 202.518 712.706 204.808 714.709 207.527C717.714 211.677 719.145 216.542 719.288 222.123C719.288 226.129 718.43 230.279 716.855 234.715C715.138 239.151 712.849 243.301 709.844 247.308C706.981 251.314 702.975 254.606 697.823 257.181C692.671 259.9 687.09 261.188 680.937 261.188C671.063 261.188 662.906 258.469 656.753 253.175C651.458 258.04 648.31 260.616 647.451 260.902C647.022 261.045 646.593 261.188 646.163 261.188C644.446 261.188 643.588 260.473 643.588 258.899Z" fill="#009944"/>
<path d="M732.582 210.515C732.582 207.939 734.013 206.651 736.732 206.508H739.164C744.459 206.508 748.036 206.365 749.896 205.936L770.645 122.367C766.924 122.081 763.919 122.081 761.916 122.081H759.197C756.765 122.081 755.477 121.079 755.477 119.076C755.477 116.5 756.908 115.213 759.483 115.213L762.059 115.356C772.076 115.499 778.229 115.642 780.661 115.642C784.811 115.642 788.674 115.642 792.252 115.499C795.829 115.499 798.548 115.499 800.551 115.356C802.554 115.213 803.699 115.213 804.128 115.213C806.418 115.213 807.562 116.214 807.562 118.074C807.562 120.793 806.131 122.081 803.127 122.081H800.408C795.829 122.081 792.538 122.367 790.248 122.797L769.5 206.222C773.363 206.365 776.225 206.508 778.229 206.508H780.947C783.523 206.508 784.811 207.51 784.811 209.37C784.811 209.799 784.811 210.229 784.668 210.658C784.525 211.087 784.238 211.66 783.523 212.375C782.951 213.091 781.949 213.377 780.804 213.377C780.518 213.377 779.23 213.377 777.37 213.234C775.367 213.091 772.648 213.091 769.357 213.091C765.923 212.948 762.202 212.948 758.339 212.948C753.903 212.948 749.896 212.948 746.605 213.091C743.457 213.091 741.025 213.091 739.308 213.234C737.734 213.377 736.875 213.377 736.446 213.377C733.87 213.377 732.582 212.375 732.582 210.515Z" fill="#009944"/>
<path d="M789.191 258.899C789.191 258.183 791.624 248.166 796.632 228.848C797.061 227.274 797.633 226.272 798.063 225.843C798.492 225.557 799.637 225.414 801.497 225.414C803.786 225.414 804.931 226.129 804.931 227.703C804.931 228.133 804.788 229.134 804.359 230.995C804.073 232.855 803.929 234.286 803.929 235.574C803.929 240.153 805.217 244.016 807.936 247.021C810.512 250.027 813.373 251.887 816.664 252.888C819.955 253.89 823.39 254.319 827.11 254.319C834.121 254.319 839.559 251.744 843.565 246.735C847.429 241.727 849.432 236.432 849.432 231.138C849.432 227.417 848.43 224.555 846.284 222.409C844.281 220.406 841.705 218.975 838.414 218.259C835.123 217.544 831.832 216.828 828.398 216.113C824.821 215.397 821.386 214.252 817.952 212.392C814.375 210.532 811.656 208.099 809.796 204.808C807.65 200.944 806.505 196.938 806.505 192.645C806.505 188.781 807.364 184.918 808.938 180.768C810.512 176.618 812.944 172.754 815.949 169.177C818.954 165.6 822.817 162.594 827.825 160.162C832.69 157.872 838.128 156.728 843.852 156.728C852.723 156.728 859.448 159.446 864.17 164.741C864.743 164.169 865.458 163.596 866.174 162.881C867.032 162.165 867.604 161.736 868.034 161.307C868.463 160.877 868.892 160.448 869.322 160.019C869.894 159.589 870.323 159.16 870.609 159.017L872.469 157.443C872.756 157.3 872.899 157.157 873.185 157.014C873.471 156.871 873.757 156.871 873.9 156.728C874.187 156.728 874.473 156.728 874.759 156.728C876.476 156.728 877.335 157.443 877.335 159.017C877.335 159.733 874.759 169.749 869.751 189.354C869.465 190.498 869.178 191.214 868.892 191.643C868.463 192.072 868.034 192.215 867.748 192.359C867.461 192.502 866.746 192.502 866.03 192.502H865.744C864.027 192.502 863.026 192.359 862.453 192.072C861.881 191.643 861.595 191.071 861.595 190.069C861.595 189.783 861.738 188.781 861.881 187.207C862.024 185.633 862.167 184.202 862.167 182.914C862.167 175.616 860.307 170.465 856.73 167.46C853.152 164.455 848.717 162.881 843.422 162.881C836.697 162.881 831.403 165.17 827.539 169.749C823.819 174.185 821.959 178.908 821.959 183.63C821.959 186.921 822.96 189.64 824.821 191.5C826.681 193.503 829.256 194.791 832.261 195.507C835.409 196.222 838.7 196.938 841.991 197.51C845.282 198.226 848.717 199.37 852.151 200.944C855.585 202.518 858.304 204.808 860.307 207.527C863.312 211.677 864.743 216.542 864.886 222.123C864.886 226.129 864.027 230.279 862.453 234.715C860.736 239.151 858.447 243.301 855.442 247.308C852.58 251.314 848.573 254.606 843.422 257.181C838.271 259.9 832.69 261.188 826.538 261.188C816.664 261.188 808.508 258.469 802.355 253.175C797.061 258.04 793.913 260.616 793.055 260.902C792.625 261.045 792.196 261.188 791.767 261.188C790.05 261.188 789.191 260.473 789.191 258.899Z" fill="#009944"/>
<path d="M828.069 124.131C828.069 124.131 827.976 124.44 841.218 121.212C882.716 111.089 931.418 82.9855 958.293 54.0261C960.903 51.2129 964.293 46.7194 964.293 46.7194C967.164 41.7625 969.25 50.112 959.596 61.5902C935.258 90.5336 881.39 123.272 828.929 132.732C822.542 133.884 821.628 124.933 828.069 124.131Z" fill="#009D4E"/>
<path fill-rule="evenodd" clip-rule="evenodd" d="M874.163 110.284C874.163 110.284 864.944 96.6368 867.388 81.045C869.825 65.4553 883.544 53.0383 883.544 53.0383C883.544 53.0383 888.123 67.0736 888.721 84.4425C889.176 97.652 874.163 110.284 874.163 110.284Z" fill="#009D4E"/>
<path fill-rule="evenodd" clip-rule="evenodd" d="M908.388 92.656C908.388 92.656 899.468 79.0137 901.513 63.2022C903.558 47.3875 916.291 34.5863 916.291 34.5863C916.291 34.5863 920.845 48.7001 921.693 66.2631C922.345 79.6186 908.388 92.656 908.388 92.656Z" fill="#009D4E"/>
<path fill-rule="evenodd" clip-rule="evenodd" d="M876.462 118.104C876.462 118.104 888.625 112.344 902.959 118.742C917.29 125.137 929.048 137.526 929.048 137.526C929.048 137.526 919.137 142.742 898.262 138.048C882.102 134.41 876.462 118.104 876.462 118.104Z" fill="#009D4E"/>
<path fill-rule="evenodd" clip-rule="evenodd" d="M938.285 72.3777C938.285 72.3777 930.001 59.2662 931.884 44.0765C933.766 28.8901 945.568 16.6052 945.568 16.6052C945.568 16.6052 949.8 30.1681 950.601 47.0325C951.212 59.8598 938.285 72.3777 938.285 72.3777Z" fill="#009D4E"/>
<path fill-rule="evenodd" clip-rule="evenodd" d="M963.508 51.9348C963.508 51.9348 976.032 50.3711 981.769 34.7161C986.943 20.6021 986.989 4.19273 986.989 4.19273C986.989 4.19273 976.171 8.39243 966.639 24.2798C958.81 37.3244 963.508 51.9348 963.508 51.9348Z" fill="#009D4E"/>
<path fill-rule="evenodd" clip-rule="evenodd" d="M911.535 100.668C911.535 100.668 925.023 94.4473 940.057 98.8842C955.09 103.324 966.666 116.106 966.666 116.106C966.666 116.106 952.25 119.684 935.07 117.838C922.005 116.433 911.535 100.668 911.535 100.668Z" fill="#009D4E"/>
<path fill-rule="evenodd" clip-rule="evenodd" d="M942.947 78.1626C942.947 78.1626 954.378 67.8997 969.237 68.5484C983.568 69.1677 996.349 72.3014 996.349 72.3014C996.349 72.3014 986.406 83.5733 970.523 86.9096C958.449 89.4459 942.947 78.1626 942.947 78.1626Z" fill="#009D4E"/>
</svg>
