<?xml version="1.0" encoding="UTF-8" standalone="no"?>
<!DOCTYPE svg PUBLIC "-//W3C//DTD SVG 1.1//EN" "http://www.w3.org/Graphics/SVG/1.1/DTD/svg11.dtd">
<svg width="300px" height="100%" viewBox="0 0 1440 480" version="1.1" xmlns="http://www.w3.org/2000/svg" xmlns:xlink="http://www.w3.org/1999/xlink" xml:space="preserve" xmlns:serif="http://www.serif.com/" style="fill-rule:evenodd;clip-rule:evenodd;stroke-linejoin:round;stroke-miterlimit:2;">
    <g transform="matrix(1.30225,0,0,1.30225,-269.628,-39.0145)">
        <g transform="matrix(158.642,0,0,158.642,415.425,284.417)">
            <path d="M0.065,-0.02C0.065,-0.039 0.075,-0.048 0.094,-0.048L0.114,-0.048C0.146,-0.048 0.168,-0.049 0.18,-0.052L0.326,-0.636C0.314,-0.638 0.296,-0.638 0.271,-0.638L0.251,-0.638C0.234,-0.638 0.225,-0.645 0.225,-0.659C0.225,-0.677 0.235,-0.686 0.255,-0.686L0.618,-0.686C0.667,-0.686 0.706,-0.681 0.734,-0.672C0.798,-0.651 0.83,-0.611 0.83,-0.551C0.83,-0.514 0.817,-0.479 0.79,-0.446C0.763,-0.412 0.726,-0.388 0.679,-0.373C0.668,-0.369 0.65,-0.364 0.626,-0.358C0.672,-0.354 0.709,-0.341 0.736,-0.318C0.764,-0.295 0.778,-0.264 0.778,-0.225C0.778,-0.175 0.756,-0.127 0.711,-0.081C0.667,-0.035 0.606,-0.009 0.529,-0.002C0.517,-0.001 0.5,0 0.477,0L0.092,0C0.074,0 0.065,-0.007 0.065,-0.02ZM0.304,-0.049C0.312,-0.048 0.323,-0.048 0.339,-0.048L0.461,-0.048C0.504,-0.048 0.538,-0.058 0.564,-0.077C0.589,-0.095 0.608,-0.12 0.622,-0.152C0.635,-0.183 0.642,-0.215 0.642,-0.246C0.642,-0.268 0.639,-0.285 0.632,-0.299C0.625,-0.313 0.616,-0.322 0.604,-0.327C0.592,-0.332 0.582,-0.336 0.575,-0.337C0.568,-0.338 0.559,-0.339 0.548,-0.339L0.377,-0.339L0.304,-0.049ZM0.386,-0.376L0.518,-0.376C0.552,-0.376 0.581,-0.383 0.606,-0.396C0.631,-0.41 0.65,-0.427 0.662,-0.448C0.674,-0.468 0.683,-0.488 0.688,-0.507C0.694,-0.525 0.697,-0.542 0.697,-0.557C0.697,-0.611 0.668,-0.638 0.611,-0.638L0.496,-0.638C0.472,-0.638 0.457,-0.638 0.451,-0.637L0.386,-0.376Z" style="fill:rgb(0,153,68);fill-rule:nonzero;"/>
        </g>
        <g transform="matrix(158.642,0,0,158.642,534.864,284.417)">
            <path d="M0.059,-0.02C0.059,-0.038 0.069,-0.047 0.088,-0.048L0.105,-0.048C0.142,-0.048 0.167,-0.049 0.18,-0.052L0.325,-0.636C0.299,-0.638 0.278,-0.638 0.264,-0.638L0.245,-0.638C0.228,-0.638 0.219,-0.645 0.219,-0.659C0.219,-0.677 0.229,-0.686 0.247,-0.686L0.265,-0.685C0.335,-0.684 0.378,-0.683 0.395,-0.683C0.424,-0.683 0.451,-0.683 0.476,-0.684C0.501,-0.684 0.52,-0.684 0.534,-0.685C0.548,-0.686 0.556,-0.686 0.559,-0.686C0.575,-0.686 0.583,-0.679 0.583,-0.666C0.583,-0.647 0.573,-0.638 0.552,-0.638L0.533,-0.638C0.501,-0.638 0.478,-0.636 0.462,-0.633L0.317,-0.05C0.344,-0.049 0.364,-0.048 0.378,-0.048L0.397,-0.048C0.415,-0.048 0.424,-0.041 0.424,-0.028C0.424,-0.025 0.424,-0.022 0.423,-0.019C0.422,-0.016 0.42,-0.012 0.415,-0.007C0.411,-0.002 0.404,0 0.396,0C0.394,0 0.385,0 0.372,-0.001C0.358,-0.002 0.339,-0.002 0.316,-0.002C0.292,-0.003 0.266,-0.003 0.239,-0.003C0.208,-0.003 0.18,-0.003 0.157,-0.002C0.135,-0.002 0.118,-0.002 0.106,-0.001C0.095,0 0.089,0 0.086,0C0.068,0 0.059,-0.007 0.059,-0.02Z" style="fill:rgb(0,153,68);fill-rule:nonzero;"/>
        </g>
        <g transform="matrix(158.642,0,0,158.642,599.692,284.417)">
            <path d="M0.181,-0.02C0.181,-0.039 0.191,-0.048 0.211,-0.048L0.244,-0.048C0.294,-0.048 0.323,-0.049 0.331,-0.051C0.339,-0.053 0.345,-0.061 0.348,-0.074C0.349,-0.077 0.349,-0.08 0.35,-0.082L0.473,-0.575C0.478,-0.598 0.482,-0.615 0.486,-0.626C0.477,-0.627 0.465,-0.627 0.448,-0.627L0.438,-0.627C0.381,-0.627 0.341,-0.616 0.316,-0.595C0.291,-0.574 0.267,-0.529 0.242,-0.46C0.239,-0.449 0.235,-0.442 0.231,-0.438C0.226,-0.435 0.219,-0.433 0.208,-0.433C0.191,-0.433 0.182,-0.439 0.182,-0.452C0.182,-0.456 0.204,-0.523 0.249,-0.653C0.252,-0.662 0.256,-0.668 0.261,-0.671C0.265,-0.674 0.272,-0.675 0.281,-0.675L0.841,-0.675C0.86,-0.675 0.869,-0.667 0.87,-0.653C0.87,-0.648 0.859,-0.585 0.838,-0.463C0.836,-0.455 0.835,-0.449 0.834,-0.446C0.833,-0.443 0.831,-0.44 0.827,-0.437C0.822,-0.434 0.817,-0.433 0.809,-0.433C0.792,-0.433 0.784,-0.44 0.784,-0.454C0.784,-0.455 0.785,-0.467 0.788,-0.49C0.791,-0.512 0.792,-0.531 0.792,-0.547C0.792,-0.565 0.79,-0.579 0.784,-0.591C0.778,-0.602 0.769,-0.61 0.757,-0.615C0.745,-0.621 0.734,-0.624 0.723,-0.625C0.712,-0.626 0.698,-0.627 0.68,-0.627L0.671,-0.627C0.649,-0.627 0.633,-0.626 0.623,-0.625L0.48,-0.051C0.48,-0.051 0.508,-0.05 0.563,-0.048L0.596,-0.048C0.615,-0.048 0.625,-0.041 0.625,-0.027C0.625,-0.009 0.615,0 0.596,0C0.593,0 0.583,0 0.567,-0.001C0.551,-0.002 0.529,-0.002 0.501,-0.002C0.473,-0.003 0.442,-0.003 0.409,-0.003L0.357,-0.003C0.342,-0.003 0.323,-0.003 0.299,-0.002C0.275,-0.002 0.253,-0.002 0.234,-0.001L0.207,0C0.19,0 0.181,-0.007 0.181,-0.02Z" style="fill:rgb(0,153,68);fill-rule:nonzero;"/>
        </g>
        <g transform="matrix(96,0,0,96,690.574,304.417)">
            <path d="M0.064,-0.02C0.064,-0.039 0.074,-0.048 0.093,-0.048L0.11,-0.048C0.145,-0.048 0.169,-0.049 0.18,-0.052L0.328,-0.637C0.315,-0.638 0.297,-0.639 0.272,-0.639L0.253,-0.639C0.235,-0.639 0.226,-0.646 0.226,-0.659C0.226,-0.677 0.236,-0.686 0.254,-0.686C0.257,-0.686 0.265,-0.686 0.277,-0.685C0.29,-0.684 0.307,-0.684 0.328,-0.684C0.35,-0.683 0.373,-0.683 0.399,-0.683C0.43,-0.683 0.457,-0.683 0.48,-0.684C0.503,-0.684 0.519,-0.684 0.53,-0.685C0.541,-0.686 0.547,-0.686 0.55,-0.686C0.568,-0.686 0.577,-0.679 0.577,-0.665C0.577,-0.648 0.568,-0.639 0.549,-0.639L0.531,-0.639C0.499,-0.639 0.48,-0.638 0.473,-0.636C0.466,-0.634 0.462,-0.628 0.459,-0.619L0.399,-0.381L0.685,-0.381L0.748,-0.637C0.736,-0.638 0.718,-0.639 0.693,-0.639L0.673,-0.639C0.656,-0.639 0.647,-0.646 0.647,-0.659C0.647,-0.677 0.657,-0.686 0.676,-0.686C0.679,-0.686 0.686,-0.686 0.699,-0.685C0.712,-0.684 0.729,-0.684 0.752,-0.684C0.774,-0.683 0.799,-0.683 0.825,-0.683C0.857,-0.683 0.884,-0.683 0.907,-0.684C0.93,-0.684 0.946,-0.684 0.956,-0.685C0.966,-0.686 0.972,-0.686 0.974,-0.686C0.992,-0.686 1.001,-0.679 1.001,-0.666C1.001,-0.648 0.992,-0.639 0.973,-0.639L0.948,-0.639C0.918,-0.639 0.899,-0.637 0.893,-0.634C0.887,-0.632 0.882,-0.623 0.879,-0.609C0.878,-0.606 0.878,-0.603 0.877,-0.601L0.74,-0.05C0.753,-0.049 0.772,-0.048 0.797,-0.048L0.817,-0.048C0.832,-0.048 0.84,-0.041 0.84,-0.027C0.84,-0.009 0.831,0 0.812,0L0.811,0C0.746,-0.002 0.696,-0.003 0.661,-0.003C0.642,-0.003 0.618,-0.002 0.588,-0.001C0.559,0 0.534,0 0.515,0C0.497,0 0.487,-0.007 0.487,-0.02C0.487,-0.038 0.497,-0.047 0.516,-0.048L0.533,-0.048C0.569,-0.048 0.592,-0.049 0.603,-0.052L0.673,-0.333L0.387,-0.333L0.316,-0.05C0.328,-0.049 0.348,-0.048 0.375,-0.048L0.394,-0.048C0.41,-0.048 0.418,-0.041 0.418,-0.027C0.418,-0.009 0.408,0 0.389,0L0.388,0C0.322,-0.002 0.272,-0.003 0.238,-0.003C0.198,-0.003 0.15,-0.002 0.092,0C0.073,0 0.064,-0.007 0.064,-0.02Z" style="fill:rgb(0,153,68);fill-rule:nonzero;"/>
        </g>
        <g transform="matrix(96,0,0,96,776.59,274.417)">
            <path d="M0.065,-0.02C0.065,-0.039 0.075,-0.048 0.094,-0.048L0.114,-0.048C0.146,-0.048 0.169,-0.049 0.18,-0.052L0.324,-0.629C0.306,-0.631 0.288,-0.632 0.27,-0.632L0.25,-0.632C0.232,-0.632 0.223,-0.639 0.223,-0.653C0.223,-0.671 0.233,-0.68 0.252,-0.68L0.775,-0.68C0.793,-0.68 0.803,-0.673 0.803,-0.658C0.803,-0.658 0.796,-0.595 0.782,-0.469C0.781,-0.458 0.778,-0.45 0.775,-0.445C0.771,-0.44 0.763,-0.438 0.752,-0.438C0.734,-0.438 0.725,-0.446 0.725,-0.462C0.725,-0.466 0.726,-0.475 0.728,-0.489C0.729,-0.504 0.73,-0.516 0.73,-0.527C0.73,-0.57 0.719,-0.598 0.696,-0.612C0.673,-0.626 0.635,-0.632 0.58,-0.632L0.51,-0.632C0.488,-0.632 0.472,-0.632 0.462,-0.631L0.399,-0.377L0.433,-0.377C0.475,-0.377 0.504,-0.385 0.52,-0.4C0.529,-0.409 0.536,-0.42 0.541,-0.432C0.546,-0.445 0.549,-0.455 0.551,-0.463C0.553,-0.471 0.557,-0.478 0.562,-0.485C0.567,-0.491 0.575,-0.494 0.585,-0.494C0.603,-0.494 0.613,-0.487 0.613,-0.472C0.613,-0.469 0.61,-0.457 0.605,-0.436C0.592,-0.385 0.578,-0.33 0.563,-0.27L0.556,-0.24C0.555,-0.238 0.554,-0.235 0.553,-0.23C0.551,-0.226 0.55,-0.223 0.549,-0.222C0.547,-0.221 0.545,-0.219 0.543,-0.217C0.541,-0.215 0.538,-0.214 0.535,-0.213C0.532,-0.213 0.528,-0.213 0.524,-0.213C0.506,-0.213 0.497,-0.219 0.497,-0.232C0.497,-0.236 0.499,-0.244 0.502,-0.257C0.505,-0.27 0.506,-0.281 0.506,-0.289C0.506,-0.307 0.5,-0.318 0.487,-0.323C0.474,-0.327 0.454,-0.329 0.426,-0.329L0.387,-0.329L0.317,-0.049C0.326,-0.048 0.338,-0.048 0.355,-0.048L0.42,-0.048C0.491,-0.048 0.544,-0.058 0.579,-0.079C0.594,-0.088 0.607,-0.098 0.619,-0.11C0.63,-0.121 0.642,-0.137 0.653,-0.156C0.664,-0.175 0.671,-0.19 0.676,-0.2C0.681,-0.21 0.689,-0.228 0.7,-0.253C0.704,-0.262 0.708,-0.268 0.712,-0.271C0.716,-0.273 0.723,-0.275 0.733,-0.275C0.75,-0.275 0.758,-0.269 0.758,-0.256C0.758,-0.253 0.726,-0.175 0.661,-0.022C0.657,-0.013 0.653,-0.007 0.649,-0.004C0.645,-0.001 0.638,0 0.628,0L0.094,0C0.075,0 0.065,-0.007 0.065,-0.02Z" style="fill:rgb(0,153,68);fill-rule:nonzero;"/>
        </g>
        <g transform="matrix(96,0,0,96,849.152,294.417)">
            <path d="M0.087,0.006C0.087,0.001 0.104,-0.069 0.139,-0.204C0.142,-0.215 0.146,-0.222 0.149,-0.225C0.152,-0.227 0.16,-0.228 0.173,-0.228C0.189,-0.228 0.197,-0.223 0.197,-0.212C0.197,-0.209 0.196,-0.202 0.193,-0.189C0.191,-0.176 0.19,-0.166 0.19,-0.157C0.19,-0.125 0.199,-0.098 0.218,-0.077C0.236,-0.056 0.256,-0.043 0.279,-0.036C0.302,-0.029 0.326,-0.026 0.352,-0.026C0.401,-0.026 0.439,-0.044 0.467,-0.079C0.494,-0.114 0.508,-0.151 0.508,-0.188C0.508,-0.214 0.501,-0.234 0.486,-0.249C0.472,-0.263 0.454,-0.273 0.431,-0.278C0.408,-0.283 0.385,-0.288 0.361,-0.293C0.336,-0.298 0.312,-0.306 0.288,-0.319C0.263,-0.332 0.244,-0.349 0.231,-0.372C0.216,-0.399 0.208,-0.427 0.208,-0.457C0.208,-0.484 0.214,-0.511 0.225,-0.54C0.236,-0.569 0.253,-0.596 0.274,-0.621C0.295,-0.646 0.322,-0.667 0.357,-0.684C0.391,-0.7 0.429,-0.708 0.469,-0.708C0.531,-0.708 0.578,-0.689 0.611,-0.652C0.615,-0.656 0.62,-0.66 0.625,-0.665C0.631,-0.67 0.635,-0.673 0.638,-0.676C0.641,-0.679 0.644,-0.682 0.647,-0.685C0.651,-0.688 0.654,-0.691 0.656,-0.692L0.669,-0.703C0.671,-0.704 0.672,-0.705 0.674,-0.706C0.676,-0.707 0.678,-0.707 0.679,-0.708C0.681,-0.708 0.683,-0.708 0.685,-0.708C0.697,-0.708 0.703,-0.703 0.703,-0.692C0.703,-0.687 0.685,-0.617 0.65,-0.48C0.648,-0.472 0.646,-0.467 0.644,-0.464C0.641,-0.461 0.638,-0.46 0.636,-0.459C0.634,-0.458 0.629,-0.458 0.624,-0.458L0.622,-0.458C0.61,-0.458 0.603,-0.459 0.599,-0.461C0.595,-0.464 0.593,-0.468 0.593,-0.475C0.593,-0.477 0.594,-0.484 0.595,-0.495C0.596,-0.506 0.597,-0.516 0.597,-0.525C0.597,-0.576 0.584,-0.612 0.559,-0.633C0.534,-0.654 0.503,-0.665 0.466,-0.665C0.419,-0.665 0.382,-0.649 0.355,-0.617C0.329,-0.586 0.316,-0.553 0.316,-0.52C0.316,-0.497 0.323,-0.478 0.336,-0.465C0.349,-0.451 0.367,-0.442 0.388,-0.437C0.41,-0.432 0.433,-0.427 0.456,-0.423C0.479,-0.418 0.503,-0.41 0.527,-0.399C0.551,-0.388 0.57,-0.372 0.584,-0.353C0.605,-0.324 0.615,-0.29 0.616,-0.251C0.616,-0.223 0.61,-0.194 0.599,-0.163C0.587,-0.132 0.571,-0.103 0.55,-0.075C0.53,-0.047 0.502,-0.024 0.466,-0.006C0.43,0.013 0.391,0.022 0.348,0.022C0.279,0.022 0.222,0.003 0.179,-0.034C0.142,0 0.12,0.018 0.114,0.02C0.111,0.021 0.108,0.022 0.105,0.022C0.093,0.022 0.087,0.017 0.087,0.006Z" style="fill:rgb(0,153,68);fill-rule:nonzero;"/>
        </g>
        <g transform="matrix(96,0,0,96,911.543,264.417)">
            <path d="M0.059,-0.02C0.059,-0.038 0.069,-0.047 0.088,-0.048L0.105,-0.048C0.142,-0.048 0.167,-0.049 0.18,-0.052L0.325,-0.636C0.299,-0.638 0.278,-0.638 0.264,-0.638L0.245,-0.638C0.228,-0.638 0.219,-0.645 0.219,-0.659C0.219,-0.677 0.229,-0.686 0.247,-0.686L0.265,-0.685C0.335,-0.684 0.378,-0.683 0.395,-0.683C0.424,-0.683 0.451,-0.683 0.476,-0.684C0.501,-0.684 0.52,-0.684 0.534,-0.685C0.548,-0.686 0.556,-0.686 0.559,-0.686C0.575,-0.686 0.583,-0.679 0.583,-0.666C0.583,-0.647 0.573,-0.638 0.552,-0.638L0.533,-0.638C0.501,-0.638 0.478,-0.636 0.462,-0.633L0.317,-0.05C0.344,-0.049 0.364,-0.048 0.378,-0.048L0.397,-0.048C0.415,-0.048 0.424,-0.041 0.424,-0.028C0.424,-0.025 0.424,-0.022 0.423,-0.019C0.422,-0.016 0.42,-0.012 0.415,-0.007C0.411,-0.002 0.404,0 0.396,0C0.394,0 0.385,0 0.372,-0.001C0.358,-0.002 0.339,-0.002 0.316,-0.002C0.292,-0.003 0.266,-0.003 0.239,-0.003C0.208,-0.003 0.18,-0.003 0.157,-0.002C0.135,-0.002 0.118,-0.002 0.106,-0.001C0.095,0 0.089,0 0.086,0C0.068,0 0.059,-0.007 0.059,-0.02Z" style="fill:rgb(0,153,68);fill-rule:nonzero;"/>
        </g>
        <g transform="matrix(96,0,0,96,946.824,294.417)">
            <path d="M0.087,0.006C0.087,0.001 0.104,-0.069 0.139,-0.204C0.142,-0.215 0.146,-0.222 0.149,-0.225C0.152,-0.227 0.16,-0.228 0.173,-0.228C0.189,-0.228 0.197,-0.223 0.197,-0.212C0.197,-0.209 0.196,-0.202 0.193,-0.189C0.191,-0.176 0.19,-0.166 0.19,-0.157C0.19,-0.125 0.199,-0.098 0.218,-0.077C0.236,-0.056 0.256,-0.043 0.279,-0.036C0.302,-0.029 0.326,-0.026 0.352,-0.026C0.401,-0.026 0.439,-0.044 0.467,-0.079C0.494,-0.114 0.508,-0.151 0.508,-0.188C0.508,-0.214 0.501,-0.234 0.486,-0.249C0.472,-0.263 0.454,-0.273 0.431,-0.278C0.408,-0.283 0.385,-0.288 0.361,-0.293C0.336,-0.298 0.312,-0.306 0.288,-0.319C0.263,-0.332 0.244,-0.349 0.231,-0.372C0.216,-0.399 0.208,-0.427 0.208,-0.457C0.208,-0.484 0.214,-0.511 0.225,-0.54C0.236,-0.569 0.253,-0.596 0.274,-0.621C0.295,-0.646 0.322,-0.667 0.357,-0.684C0.391,-0.7 0.429,-0.708 0.469,-0.708C0.531,-0.708 0.578,-0.689 0.611,-0.652C0.615,-0.656 0.62,-0.66 0.625,-0.665C0.631,-0.67 0.635,-0.673 0.638,-0.676C0.641,-0.679 0.644,-0.682 0.647,-0.685C0.651,-0.688 0.654,-0.691 0.656,-0.692L0.669,-0.703C0.671,-0.704 0.672,-0.705 0.674,-0.706C0.676,-0.707 0.678,-0.707 0.679,-0.708C0.681,-0.708 0.683,-0.708 0.685,-0.708C0.697,-0.708 0.703,-0.703 0.703,-0.692C0.703,-0.687 0.685,-0.617 0.65,-0.48C0.648,-0.472 0.646,-0.467 0.644,-0.464C0.641,-0.461 0.638,-0.46 0.636,-0.459C0.634,-0.458 0.629,-0.458 0.624,-0.458L0.622,-0.458C0.61,-0.458 0.603,-0.459 0.599,-0.461C0.595,-0.464 0.593,-0.468 0.593,-0.475C0.593,-0.477 0.594,-0.484 0.595,-0.495C0.596,-0.506 0.597,-0.516 0.597,-0.525C0.597,-0.576 0.584,-0.612 0.559,-0.633C0.534,-0.654 0.503,-0.665 0.466,-0.665C0.419,-0.665 0.382,-0.649 0.355,-0.617C0.329,-0.586 0.316,-0.553 0.316,-0.52C0.316,-0.497 0.323,-0.478 0.336,-0.465C0.349,-0.451 0.367,-0.442 0.388,-0.437C0.41,-0.432 0.433,-0.427 0.456,-0.423C0.479,-0.418 0.503,-0.41 0.527,-0.399C0.551,-0.388 0.57,-0.372 0.584,-0.353C0.605,-0.324 0.615,-0.29 0.616,-0.251C0.616,-0.223 0.61,-0.194 0.599,-0.163C0.587,-0.132 0.571,-0.103 0.55,-0.075C0.53,-0.047 0.502,-0.024 0.466,-0.006C0.43,0.013 0.391,0.022 0.348,0.022C0.279,0.022 0.222,0.003 0.179,-0.034C0.142,0 0.12,0.018 0.114,0.02C0.111,0.021 0.108,0.022 0.105,0.022C0.093,0.022 0.087,0.017 0.087,0.006Z" style="fill:rgb(0,153,68);fill-rule:nonzero;"/>
        </g>
    </g>
    <g transform="matrix(0.674901,0,0,0.674901,319.957,86.6785)">
        <g transform="matrix(4.16667,0,0,4.16667,1019.75,114.464)">
            <path d="M0,22.56C0,22.56 -0.029,22.656 4.085,21.653C16.977,18.508 32.107,9.777 40.456,0.78C41.267,-0.094 42.32,-1.49 42.32,-1.49C43.212,-3.03 43.86,-0.436 40.861,3.13C33.3,12.122 16.565,22.293 0.267,25.232C-1.717,25.59 -2.001,22.809 0,22.56" style="fill:rgb(0,157,78);fill-rule:nonzero;"/>
        </g>
        <g transform="matrix(4.11183,0.673745,0.673745,-4.11183,1073.52,189.423)">
            <path d="M1.45,-0.029C1.45,-0.029 -2.062,3.692 -2.096,8.595C-2.132,13.497 1.45,17.993 1.45,17.993C1.45,17.993 3.559,13.92 4.615,8.625C5.418,4.598 1.45,-0.029 1.45,-0.029" style="fill:rgb(0,157,78);"/>
        </g>
        <g transform="matrix(4.12862,0.561818,0.561818,-4.12862,1118.67,166.926)">
            <path d="M1.223,-0.023C1.223,-0.023 -2.094,3.803 -2.127,8.756C-2.16,13.71 1.223,18.184 1.223,18.184C1.223,18.184 3.216,14.03 4.213,8.659C4.973,4.575 1.223,-0.023 1.223,-0.023" style="fill:rgb(0,157,78);"/>
        </g>
        <g transform="matrix(-1.44354,3.90862,3.90862,1.44354,1139.71,185.171)">
            <path d="M8.248,-11.612C8.248,-11.612 5.26,-8.687 5.582,-3.821C5.903,1.044 8.248,5.804 8.248,5.804C8.248,5.804 10.835,3.477 11.714,-3.112C12.393,-8.213 8.248,-11.612 8.248,-11.612" style="fill:rgb(0,157,78);"/>
        </g>
        <g transform="matrix(4.1316,0.539403,0.539403,-4.1316,1157.76,140.796)">
            <path d="M1.128,-0.021C1.128,-0.021 -1.951,3.685 -1.982,8.44C-2.013,13.194 1.128,17.453 1.128,17.453C1.128,17.453 2.977,13.445 3.902,8.282C4.606,4.355 1.128,-0.021 1.128,-0.021" style="fill:rgb(0,157,78);"/>
        </g>
        <g transform="matrix(3.73895,1.83885,1.83885,-3.73895,1182.68,106.473)">
            <path d="M3.573,-0.526C3.573,-0.526 6.85,1.627 6.303,6.778C5.81,11.422 3.573,16.003 3.573,16.003C3.573,16.003 1.133,13.349 0.654,7.613C0.26,2.903 3.573,-0.526 3.573,-0.526" style="fill:rgb(0,157,78);"/>
        </g>
        <g transform="matrix(-1.12355,4.01232,4.01232,1.12355,1181.04,154.265)">
            <path d="M8.959,-10.77C8.959,-10.77 5.968,-7.256 6.036,-2.387C6.105,2.482 8.959,7.016 8.959,7.016C8.959,7.016 11.237,3.003 12.124,-2.291C12.798,-6.317 8.959,-10.77 8.959,-10.77" style="fill:rgb(0,157,78);"/>
        </g>
        <g transform="matrix(0.454569,4.1418,4.1418,-0.454569,1199.94,115.174)">
            <path d="M7.233,-8.388C7.233,-8.388 4.451,-4.51 5.155,0.057C5.832,4.462 7.233,8.303 7.233,8.303C7.233,8.303 10.377,4.85 10.869,-0.168C11.243,-3.983 7.233,-8.388 7.233,-8.388" style="fill:rgb(0,157,78);"/>
        </g>
    </g>
</svg>
