<svg width="143" height="32" viewBox="0 0 143 32" fill="none" xmlns="http://www.w3.org/2000/svg">
<rect x="0.5" y="0.5" width="142" height="31" rx="2.5" fill="#FDFDFD" stroke="#CED2D4"/>
<path d="M39.739 17.535C39.739 18.095 39.669 18.5967 39.529 19.04C39.3937 19.4833 39.1907 19.859 38.92 20.167C38.654 20.4703 38.325 20.7037 37.933 20.867C37.541 21.0303 37.0907 21.112 36.582 21.112C36.12 21.112 35.6487 21.0467 35.168 20.916C35.1773 20.7807 35.189 20.6477 35.203 20.517C35.217 20.3817 35.2287 20.2487 35.238 20.118C35.2473 20.0387 35.2753 19.9757 35.322 19.929C35.3733 19.8777 35.4503 19.852 35.553 19.852C35.637 19.852 35.7467 19.873 35.882 19.915C36.022 19.957 36.2087 19.978 36.442 19.978C36.75 19.978 37.0253 19.9313 37.268 19.838C37.5107 19.7447 37.7137 19.6 37.877 19.404C38.0403 19.208 38.164 18.9583 38.248 18.655C38.3367 18.347 38.381 17.983 38.381 17.563V10.969H39.739V17.535ZM44.6498 13.797C45.1678 13.797 45.6345 13.8833 46.0498 14.056C46.4652 14.2287 46.8198 14.4737 47.1138 14.791C47.4078 15.1083 47.6318 15.4933 47.7858 15.946C47.9445 16.394 48.0238 16.8957 48.0238 17.451C48.0238 18.011 47.9445 18.515 47.7858 18.963C47.6318 19.411 47.4078 19.7937 47.1138 20.111C46.8198 20.4283 46.4652 20.6733 46.0498 20.846C45.6345 21.014 45.1678 21.098 44.6498 21.098C44.1272 21.098 43.6558 21.014 43.2358 20.846C42.8205 20.6733 42.4658 20.4283 42.1718 20.111C41.8778 19.7937 41.6515 19.411 41.4928 18.963C41.3388 18.515 41.2618 18.011 41.2618 17.451C41.2618 16.8957 41.3388 16.394 41.4928 15.946C41.6515 15.4933 41.8778 15.1083 42.1718 14.791C42.4658 14.4737 42.8205 14.2287 43.2358 14.056C43.6558 13.8833 44.1272 13.797 44.6498 13.797ZM44.6498 20.125C45.3498 20.125 45.8725 19.8917 46.2178 19.425C46.5632 18.9537 46.7358 18.298 46.7358 17.458C46.7358 16.6133 46.5632 15.9553 46.2178 15.484C45.8725 15.0127 45.3498 14.777 44.6498 14.777C44.2952 14.777 43.9848 14.8377 43.7188 14.959C43.4575 15.0803 43.2382 15.2553 43.0608 15.484C42.8882 15.7127 42.7575 15.995 42.6688 16.331C42.5848 16.6623 42.5428 17.038 42.5428 17.458C42.5428 18.298 42.7155 18.9537 43.0608 19.425C43.4108 19.8917 43.9405 20.125 44.6498 20.125ZM50.9202 13.909V21H49.6742V13.909H50.9202ZM51.1862 11.683C51.1862 11.8043 51.1605 11.9187 51.1092 12.026C51.0625 12.1287 50.9972 12.222 50.9132 12.306C50.8339 12.3853 50.7382 12.4483 50.6262 12.495C50.5189 12.5417 50.4045 12.565 50.2832 12.565C50.1619 12.565 50.0475 12.5417 49.9402 12.495C49.8375 12.4483 49.7465 12.3853 49.6672 12.306C49.5879 12.222 49.5249 12.1287 49.4782 12.026C49.4315 11.9187 49.4082 11.8043 49.4082 11.683C49.4082 11.5617 49.4315 11.4473 49.4782 11.34C49.5249 11.228 49.5879 11.1323 49.6672 11.053C49.7465 10.969 49.8375 10.9037 49.9402 10.857C50.0475 10.8103 50.1619 10.787 50.2832 10.787C50.4045 10.787 50.5189 10.8103 50.6262 10.857C50.7382 10.9037 50.8339 10.969 50.9132 11.053C50.9972 11.1323 51.0625 11.228 51.1092 11.34C51.1605 11.4473 51.1862 11.5617 51.1862 11.683ZM54.1435 14.938C54.2975 14.7653 54.4608 14.609 54.6335 14.469C54.8061 14.329 54.9881 14.21 55.1795 14.112C55.3755 14.0093 55.5808 13.9323 55.7955 13.881C56.0148 13.825 56.2505 13.797 56.5025 13.797C56.8898 13.797 57.2305 13.8623 57.5245 13.993C57.8231 14.119 58.0705 14.301 58.2665 14.539C58.4671 14.7723 58.6188 15.0547 58.7215 15.386C58.8241 15.7173 58.8755 16.0837 58.8755 16.485V21H57.6225V16.485C57.6225 15.9483 57.4988 15.533 57.2515 15.239C57.0088 14.9403 56.6378 14.791 56.1385 14.791C55.7698 14.791 55.4245 14.8797 55.1025 15.057C54.7851 15.2343 54.4911 15.4747 54.2205 15.778V21H52.9675V13.909H53.7165C53.8938 13.909 54.0035 13.9953 54.0455 14.168L54.1435 14.938ZM70.1871 13.909V21H69.4451C69.2678 21 69.1558 20.9137 69.1091 20.741L69.0111 19.978C68.7031 20.3187 68.3578 20.594 67.9751 20.804C67.5925 21.0093 67.1538 21.112 66.6591 21.112C66.2718 21.112 65.9288 21.049 65.6301 20.923C65.3361 20.7923 65.0888 20.6103 64.8881 20.377C64.6875 20.1437 64.5358 19.8613 64.4331 19.53C64.3351 19.1987 64.2861 18.8323 64.2861 18.431V13.909H65.5321V18.431C65.5321 18.9677 65.6535 19.383 65.8961 19.677C66.1435 19.971 66.5191 20.118 67.0231 20.118C67.3918 20.118 67.7348 20.0317 68.0521 19.859C68.3741 19.6817 68.6705 19.439 68.9411 19.131V13.909H70.1871ZM76.2928 15.078C76.2368 15.1807 76.1504 15.232 76.0338 15.232C75.9638 15.232 75.8844 15.2063 75.7958 15.155C75.7071 15.1037 75.5974 15.0477 75.4668 14.987C75.3408 14.9217 75.1891 14.8633 75.0118 14.812C74.8344 14.756 74.6244 14.728 74.3818 14.728C74.1718 14.728 73.9828 14.756 73.8148 14.812C73.6468 14.8633 73.5021 14.9357 73.3808 15.029C73.2641 15.1223 73.1731 15.232 73.1078 15.358C73.0471 15.4793 73.0168 15.6123 73.0168 15.757C73.0168 15.939 73.0681 16.0907 73.1708 16.212C73.2781 16.3333 73.4181 16.4383 73.5908 16.527C73.7634 16.6157 73.9594 16.695 74.1788 16.765C74.3981 16.8303 74.6221 16.9027 74.8508 16.982C75.0841 17.0567 75.3104 17.1407 75.5298 17.234C75.7491 17.3273 75.9451 17.444 76.1178 17.584C76.2904 17.724 76.4281 17.8967 76.5308 18.102C76.6381 18.3027 76.6918 18.5453 76.6918 18.83C76.6918 19.1567 76.6334 19.46 76.5168 19.74C76.4001 20.0153 76.2274 20.2557 75.9988 20.461C75.7701 20.6617 75.4901 20.8203 75.1588 20.937C74.8274 21.0537 74.4448 21.112 74.0108 21.112C73.5161 21.112 73.0681 21.0327 72.6668 20.874C72.2654 20.7107 71.9248 20.503 71.6448 20.251L71.9388 19.775C71.9761 19.7143 72.0204 19.6677 72.0718 19.635C72.1231 19.6023 72.1884 19.586 72.2678 19.586C72.3518 19.586 72.4404 19.6187 72.5338 19.684C72.6271 19.7493 72.7391 19.8217 72.8698 19.901C73.0051 19.9803 73.1684 20.0527 73.3598 20.118C73.5511 20.1833 73.7891 20.216 74.0738 20.216C74.3164 20.216 74.5288 20.1857 74.7108 20.125C74.8928 20.0597 75.0444 19.9733 75.1658 19.866C75.2871 19.7587 75.3758 19.635 75.4318 19.495C75.4924 19.355 75.5228 19.2057 75.5228 19.047C75.5228 18.851 75.4691 18.69 75.3618 18.564C75.2591 18.4333 75.1214 18.3237 74.9488 18.235C74.7761 18.1417 74.5778 18.0623 74.3538 17.997C74.1344 17.927 73.9081 17.8547 73.6748 17.78C73.4461 17.7053 73.2198 17.6213 72.9958 17.528C72.7764 17.43 72.5804 17.3087 72.4078 17.164C72.2351 17.0193 72.0951 16.842 71.9878 16.632C71.8851 16.4173 71.8338 16.1583 71.8338 15.855C71.8338 15.5843 71.8898 15.3253 72.0018 15.078C72.1138 14.826 72.2771 14.6067 72.4918 14.42C72.7064 14.2287 72.9701 14.077 73.2828 13.965C73.5954 13.853 73.9524 13.797 74.3538 13.797C74.8204 13.797 75.2381 13.8717 75.6068 14.021C75.9801 14.1657 76.3021 14.3663 76.5728 14.623L76.2928 15.078Z" fill="black"/>
<path d="M84.8465 13.706C85.3785 13.706 85.8615 13.7923 86.2955 13.965C86.7341 14.1377 87.1075 14.3827 87.4155 14.7C87.7281 15.0173 87.9685 15.4047 88.1365 15.862C88.3045 16.3193 88.3885 16.8303 88.3885 17.395C88.3885 17.9643 88.3045 18.4777 88.1365 18.935C87.9685 19.3923 87.7281 19.782 87.4155 20.104C87.1075 20.426 86.7341 20.6733 86.2955 20.846C85.8615 21.0187 85.3785 21.105 84.8465 21.105C84.3098 21.105 83.8221 21.0187 83.3835 20.846C82.9448 20.6733 82.5691 20.426 82.2565 20.104C81.9485 19.782 81.7081 19.3923 81.5355 18.935C81.3675 18.4777 81.2835 17.9643 81.2835 17.395C81.2835 16.8303 81.3675 16.3193 81.5355 15.862C81.7081 15.4047 81.9485 15.0173 82.2565 14.7C82.5691 14.3827 82.9448 14.1377 83.3835 13.965C83.8221 13.7923 84.3098 13.706 84.8465 13.706ZM84.8465 19.775C85.4438 19.775 85.8848 19.5743 86.1695 19.173C86.4588 18.7717 86.6035 18.1837 86.6035 17.409C86.6035 16.6343 86.4588 16.044 86.1695 15.638C85.8848 15.232 85.4438 15.029 84.8465 15.029C84.2398 15.029 83.7895 15.2343 83.4955 15.645C83.2061 16.051 83.0615 16.639 83.0615 17.409C83.0615 18.179 83.2061 18.767 83.4955 19.173C83.7895 19.5743 84.2398 19.775 84.8465 19.775ZM91.3245 14.7C91.4692 14.5553 91.6208 14.4223 91.7795 14.301C91.9428 14.175 92.1132 14.07 92.2905 13.986C92.4725 13.8973 92.6662 13.8297 92.8715 13.783C93.0768 13.7317 93.3008 13.706 93.5435 13.706C93.9355 13.706 94.2832 13.7737 94.5865 13.909C94.8898 14.0397 95.1418 14.2263 95.3425 14.469C95.5478 14.707 95.7018 14.994 95.8045 15.33C95.9118 15.6613 95.9655 16.0277 95.9655 16.429V21H94.2365V16.429C94.2365 15.9903 94.1362 15.652 93.9355 15.414C93.7348 15.1713 93.4292 15.05 93.0185 15.05C92.7198 15.05 92.4398 15.1177 92.1785 15.253C91.9172 15.3883 91.6698 15.5727 91.4365 15.806V21H89.7075V13.818H90.7645C90.9885 13.818 91.1355 13.923 91.2055 14.133L91.3245 14.7ZM106.677 12.719C106.621 12.817 106.56 12.8893 106.495 12.936C106.434 12.978 106.357 12.999 106.264 12.999C106.166 12.999 106.059 12.964 105.942 12.894C105.83 12.8193 105.695 12.7377 105.536 12.649C105.377 12.5603 105.191 12.481 104.976 12.411C104.766 12.3363 104.516 12.299 104.227 12.299C103.966 12.299 103.737 12.3317 103.541 12.397C103.345 12.4577 103.179 12.544 103.044 12.656C102.913 12.768 102.815 12.9033 102.75 13.062C102.685 13.216 102.652 13.3863 102.652 13.573C102.652 13.811 102.717 14.0093 102.848 14.168C102.983 14.3267 103.161 14.462 103.38 14.574C103.599 14.686 103.849 14.7863 104.129 14.875C104.409 14.9637 104.696 15.0593 104.99 15.162C105.284 15.26 105.571 15.3767 105.851 15.512C106.131 15.6427 106.381 15.8107 106.6 16.016C106.819 16.2167 106.994 16.464 107.125 16.758C107.26 17.052 107.328 17.409 107.328 17.829C107.328 18.2863 107.249 18.7157 107.09 19.117C106.936 19.5137 106.707 19.8613 106.404 20.16C106.105 20.454 105.739 20.6873 105.305 20.86C104.871 21.028 104.374 21.112 103.814 21.112C103.492 21.112 103.175 21.0793 102.862 21.014C102.549 20.9533 102.248 20.8647 101.959 20.748C101.674 20.6313 101.406 20.4913 101.154 20.328C100.902 20.1647 100.678 19.9827 100.482 19.782L101.035 18.879C101.082 18.8137 101.142 18.76 101.217 18.718C101.292 18.6713 101.371 18.648 101.455 18.648C101.572 18.648 101.698 18.697 101.833 18.795C101.968 18.8883 102.129 18.9933 102.316 19.11C102.503 19.2267 102.72 19.334 102.967 19.432C103.219 19.5253 103.52 19.572 103.87 19.572C104.407 19.572 104.822 19.446 105.116 19.194C105.41 18.9373 105.557 18.571 105.557 18.095C105.557 17.829 105.489 17.612 105.354 17.444C105.223 17.276 105.048 17.136 104.829 17.024C104.61 16.9073 104.36 16.8093 104.08 16.73C103.8 16.6507 103.515 16.5643 103.226 16.471C102.937 16.3777 102.652 16.2657 102.372 16.135C102.092 16.0043 101.842 15.834 101.623 15.624C101.404 15.414 101.226 15.1527 101.091 14.84C100.96 14.5227 100.895 14.133 100.895 13.671C100.895 13.3023 100.967 12.943 101.112 12.593C101.261 12.243 101.476 11.9327 101.756 11.662C102.036 11.3913 102.381 11.1743 102.792 11.011C103.203 10.8477 103.674 10.766 104.206 10.766C104.803 10.766 105.354 10.8593 105.858 11.046C106.362 11.2327 106.791 11.494 107.146 11.83L106.677 12.719ZM110.352 10.598V21H108.623V10.598H110.352ZM115.869 17.934C115.369 17.9573 114.949 18.0017 114.609 18.067C114.268 18.1277 113.995 18.207 113.79 18.305C113.584 18.403 113.437 18.5173 113.349 18.648C113.26 18.7787 113.216 18.921 113.216 19.075C113.216 19.3783 113.304 19.5953 113.482 19.726C113.664 19.8567 113.899 19.922 114.189 19.922C114.543 19.922 114.849 19.859 115.106 19.733C115.367 19.6023 115.621 19.4063 115.869 19.145V17.934ZM111.907 14.819C112.733 14.063 113.727 13.685 114.889 13.685C115.309 13.685 115.684 13.755 116.016 13.895C116.347 14.0303 116.627 14.2217 116.856 14.469C117.084 14.7117 117.257 15.0033 117.374 15.344C117.495 15.6847 117.556 16.058 117.556 16.464V21H116.772C116.608 21 116.482 20.9767 116.394 20.93C116.305 20.8787 116.235 20.7783 116.184 20.629L116.03 20.111C115.848 20.2743 115.67 20.419 115.498 20.545C115.325 20.6663 115.145 20.769 114.959 20.853C114.772 20.937 114.571 21 114.357 21.042C114.147 21.0887 113.913 21.112 113.657 21.112C113.353 21.112 113.073 21.0723 112.817 20.993C112.56 20.909 112.338 20.7853 112.152 20.622C111.965 20.4587 111.82 20.2557 111.718 20.013C111.615 19.7703 111.564 19.488 111.564 19.166C111.564 18.984 111.594 18.8043 111.655 18.627C111.715 18.445 111.813 18.2723 111.949 18.109C112.089 17.9457 112.268 17.7917 112.488 17.647C112.707 17.5023 112.975 17.3763 113.293 17.269C113.615 17.1617 113.988 17.0753 114.413 17.01C114.837 16.94 115.323 16.898 115.869 16.884V16.464C115.869 15.9833 115.766 15.6287 115.561 15.4C115.355 15.1667 115.059 15.05 114.672 15.05C114.392 15.05 114.158 15.0827 113.972 15.148C113.79 15.2133 113.629 15.288 113.489 15.372C113.349 15.4513 113.22 15.5237 113.104 15.589C112.992 15.6543 112.866 15.687 112.726 15.687C112.604 15.687 112.502 15.6567 112.418 15.596C112.334 15.5307 112.266 15.456 112.215 15.372L111.907 14.819ZM124.329 15.337C124.278 15.4023 124.226 15.4537 124.175 15.491C124.128 15.5283 124.058 15.547 123.965 15.547C123.876 15.547 123.79 15.5213 123.706 15.47C123.622 15.414 123.522 15.3533 123.405 15.288C123.288 15.218 123.148 15.1573 122.985 15.106C122.826 15.05 122.628 15.022 122.39 15.022C122.087 15.022 121.821 15.078 121.592 15.19C121.363 15.2973 121.172 15.4537 121.018 15.659C120.869 15.8643 120.757 16.114 120.682 16.408C120.607 16.6973 120.57 17.0263 120.57 17.395C120.57 17.7777 120.61 18.1183 120.689 18.417C120.773 18.7157 120.892 18.9677 121.046 19.173C121.2 19.3737 121.387 19.5277 121.606 19.635C121.825 19.7377 122.073 19.789 122.348 19.789C122.623 19.789 122.845 19.7563 123.013 19.691C123.186 19.621 123.33 19.5463 123.447 19.467C123.564 19.383 123.664 19.3083 123.748 19.243C123.837 19.173 123.935 19.138 124.042 19.138C124.182 19.138 124.287 19.1917 124.357 19.299L124.854 19.929C124.663 20.153 124.455 20.342 124.231 20.496C124.007 20.6453 123.774 20.7667 123.531 20.86C123.293 20.9487 123.046 21.0117 122.789 21.049C122.537 21.0863 122.285 21.105 122.033 21.105C121.59 21.105 121.172 21.0233 120.78 20.86C120.388 20.692 120.045 20.4493 119.751 20.132C119.457 19.8147 119.224 19.4273 119.051 18.97C118.883 18.508 118.799 17.983 118.799 17.395C118.799 16.8677 118.874 16.38 119.023 15.932C119.177 15.4793 119.401 15.0897 119.695 14.763C119.989 14.4317 120.353 14.1727 120.787 13.986C121.221 13.7993 121.72 13.706 122.285 13.706C122.822 13.706 123.291 13.7923 123.692 13.965C124.098 14.1377 124.462 14.385 124.784 14.707L124.329 15.337ZM127.667 10.598V16.555H127.989C128.106 16.555 128.197 16.541 128.262 16.513C128.332 16.4803 128.402 16.4173 128.472 16.324L130.257 14.119C130.332 14.021 130.413 13.9463 130.502 13.895C130.595 13.8437 130.714 13.818 130.859 13.818H132.441L130.208 16.485C130.049 16.695 129.877 16.856 129.69 16.968C129.788 17.038 129.874 17.1197 129.949 17.213C130.028 17.3063 130.103 17.4067 130.173 17.514L132.567 21H131.006C130.871 21 130.754 20.979 130.656 20.937C130.558 20.8903 130.476 20.8087 130.411 20.692L128.577 17.969C128.512 17.8617 128.444 17.7917 128.374 17.759C128.304 17.7263 128.199 17.71 128.059 17.71H127.667V21H125.938V10.598H127.667Z" fill="black" fill-opacity="0.8"/>
<path d="M12.0759 18.2593C12.0759 19.3809 11.1596 20.2972 10.0379 20.2972C8.91629 20.2972 8 19.3809 8 18.2593C8 17.1376 8.91629 16.2213 10.0379 16.2213H12.0759V18.2593Z" fill="#E01E5A"/>
<path d="M13.1028 18.2593C13.1028 17.1376 14.0191 16.2213 15.1407 16.2213C16.2624 16.2213 17.1787 17.1376 17.1787 18.2593V23.362C17.1787 24.4837 16.2624 25.4 15.1407 25.4C14.0191 25.4 13.1028 24.4837 13.1028 23.362V18.2593Z" fill="#E01E5A"/>
<path d="M15.1407 10.0759C14.0191 10.0759 13.1028 9.1596 13.1028 8.03795C13.1028 6.91629 14.0191 6 15.1407 6C16.2624 6 17.1787 6.91629 17.1787 8.03795V10.0759H15.1407Z" fill="#36C5F0"/>
<path d="M15.1407 11.1028C16.2624 11.1028 17.1786 12.0191 17.1786 13.1407C17.1786 14.2624 16.2624 15.1787 15.1407 15.1787H10.0379C8.91629 15.1787 8 14.2624 8 13.1407C8 12.0191 8.91629 11.1028 10.0379 11.1028H15.1407Z" fill="#36C5F0"/>
<path d="M23.324 13.1407C23.324 12.0191 24.2403 11.1028 25.3619 11.1028C26.4836 11.1028 27.3999 12.0191 27.3999 13.1407C27.3999 14.2624 26.4836 15.1787 25.3619 15.1787H23.324V13.1407Z" fill="#2EB67D"/>
<path d="M22.2972 13.1407C22.2972 14.2624 21.3809 15.1786 20.2593 15.1786C19.1376 15.1786 18.2213 14.2624 18.2213 13.1407V8.03794C18.2213 6.91629 19.1376 6 20.2593 6C21.3809 6 22.2972 6.91629 22.2972 8.03794V13.1407Z" fill="#2EB67D"/>
<path d="M20.2593 21.3241C21.3809 21.3241 22.2972 22.2404 22.2972 23.362C22.2972 24.4837 21.3809 25.4 20.2593 25.4C19.1376 25.4 18.2213 24.4837 18.2213 23.362V21.3241H20.2593Z" fill="#ECB22E"/>
<path d="M20.2593 20.2972C19.1376 20.2972 18.2213 19.3809 18.2213 18.2593C18.2213 17.1376 19.1376 16.2213 20.2593 16.2213H25.362C26.4837 16.2213 27.4 17.1376 27.4 18.2593C27.4 19.3809 26.4837 20.2972 25.362 20.2972H20.2593Z" fill="#ECB22E"/>
</svg>
